<svg xmlns="http://www.w3.org/2000/svg" width="64" height="64" fill-rule="evenodd" stroke-linejoin="round" stroke-miterlimit="2" clip-rule="evenodd" id="art"><path fill="url(#_Linear1)" d="M30.5,8C42,8 33.084,22.079 37,25C42.747,29.286 54,23.786 54,31.5C54,44.47 43.47,55 30.5,55C17.53,55 7,44.47 7,31.5C7,23.128 11.388,15.772 17.987,11.609C21.611,9.323 25.902,8 30.5,8Z"></path><path fill="url(#_Linear2)" d="M30.5,8C42,8 33.084,22.079 37,25C42.747,29.286 54,23.786 54,31.5C54,44.47 43.47,55 30.5,55C17.53,55 7,44.47 7,31.5C7,23.128 11.388,15.772 17.987,11.609C21.611,9.323 25.902,8 30.5,8Z"></path><circle cx="23.5" cy="20.5" r="3.5" fill="url(#_Linear3)"></circle><circle cx="17.5" cy="31.5" r="3.5" fill="url(#_Linear4)"></circle><circle cx="24.5" cy="42.5" r="3.5" fill="url(#_Linear5)"></circle><circle cx="37.5" cy="43.5" r="3.5" fill="url(#_Linear6)"></circle><path fill="url(#_Linear7)" d="M52,25L46,25L45,38C45,38 46.259,49.331 46.779,54.013C46.905,55.144 47.861,56 49,56C49,56 49,56 49,56C50.139,56 51.095,55.144 51.221,54.013C51.741,49.331 53,38 53,38L52,25Z"></path><path fill="url(#_Linear8)" d="M53,38C50.333,39.371 47.667,39.36 45,38L46,25L52,25L53,38Z"></path><path fill="url(#_Linear9)" d="M51,9.5C50,7.5 48,7.5 47,9.5C45.566,12.367 40,18.5 45,26.5C45.861,27.878 52.139,27.878 53,26.5C58,18.5 52.434,12.367 51,9.5Z"></path><defs><linearGradient id="_Linear1" x1="0" x2="1" y1="0" y2="0" gradientTransform="rotate(90 11.9 19.787) scale(48.4)" gradientUnits="userSpaceOnUse"><stop offset="0" stop-color="#34f5c4"></stop><stop offset="1" stop-color="#16c79a"></stop></linearGradient><linearGradient id="_Linear2" x1="0" x2="1" y1="0" y2="0" gradientTransform="rotate(90 11.9 19.787) scale(48.4)" gradientUnits="userSpaceOnUse"><stop offset="0" stop-color="#ebf9f8"></stop><stop offset="1" stop-color="#c0c4f6"></stop></linearGradient><linearGradient id="_Linear3" x1="0" x2="1" y1="0" y2="0" gradientTransform="matrix(7 0 0 7 20 20.5)" gradientUnits="userSpaceOnUse"><stop offset="0" stop-color="#5edaea"></stop><stop offset="1" stop-color="#1b8dbb"></stop></linearGradient><linearGradient id="_Linear4" x1="0" x2="1" y1="0" y2="0" gradientTransform="matrix(7 0 0 7 14 31.5)" gradientUnits="userSpaceOnUse"><stop offset="0" stop-color="#ffbd56"></stop><stop offset="1" stop-color="#ff781b"></stop></linearGradient><linearGradient id="_Linear5" x1="0" x2="1" y1="0" y2="0" gradientTransform="matrix(7 0 0 7 21 42.5)" gradientUnits="userSpaceOnUse"><stop offset="0" stop-color="#b0f596"></stop><stop offset="1" stop-color="#1eac61"></stop></linearGradient><linearGradient id="_Linear6" x1="0" x2="1" y1="0" y2="0" gradientTransform="matrix(7 0 0 7 34 43.5)" gradientUnits="userSpaceOnUse"><stop offset="0" stop-color="#ff6f96"></stop><stop offset="1" stop-color="#e44444"></stop></linearGradient><linearGradient id="_Linear7" x1="0" x2="1" y1="0" y2="0" gradientTransform="rotate(90.923 6.788 42.108) scale(19.49023)" gradientUnits="userSpaceOnUse"><stop offset="0" stop-color="#5edaea"></stop><stop offset="1" stop-color="#1b8dbb"></stop></linearGradient><linearGradient id="_Linear8" x1="0" x2="1" y1="0" y2="0" gradientTransform="matrix(1 13 -13 1 48 25)" gradientUnits="userSpaceOnUse"><stop offset="0" stop-color="#75858c"></stop><stop offset="1" stop-color="#405a65"></stop></linearGradient><linearGradient id="_Linear9" x1="0" x2="1" y1="0" y2="0" gradientTransform="rotate(90 19.9 29.187) scale(18.4)" gradientUnits="userSpaceOnUse"><stop offset="0" stop-color="#ff6f96"></stop><stop offset="1" stop-color="#e44444"></stop></linearGradient></defs></svg>