<svg xmlns="http://www.w3.org/2000/svg" data-name="1. Blueprint" viewBox="0 0 110 110" id="blueprint"><circle cx="55" cy="55" r="50" fill="#e7efff"></circle><circle cx="4" cy="8" r="3" fill="#ff4d69"></circle><circle cx="106" cy="4" r="3" fill="#00c99f"></circle><circle cx="101" cy="97" r="3" fill="#ffa100"></circle><circle cx="12.09" cy="106" r="3" fill="#00c99f"></circle><path fill="#8fa2ff" d="M90.69,90c-74.78,0-69.71.2-71.83-.46A11,11,0,0,1,11,79V19H89.68A50,50,0,0,1,90.69,90Z"></path><circle cx="76" cy="49" r="22" fill="#323fd4"></circle><rect width="40" height="40" x="38" y="43" fill="#4e6aff" rx="4"></rect><path fill="#323fd4" d="M42,83a4,4,0,0,1-4-4V72l9.68-9.68a2,2,0,0,1,2.73-.09L57,68,67.44,57.56a2,2,0,0,1,3,.15L78,67V79a4,4,0,0,1-4,4Z"></path><path fill="#4e6aff" d="M31,19V80a10,10,0,0,0-20,0V19a10,10,0,0,1,20,0Z"></path><path fill="#ffa100" d="M85,65V95a50.17,50.17,0,0,1-10,5.85V65Z"></path><polygon fill="#fff" points="85 65 75 65 80 55 85 65"></polygon><polygon fill="#7f96d1" points="82.5 60 77.5 60 80 55 82.5 60"></polygon><rect width="10" height="4" x="38" y="27" fill="#fff" rx="1"></rect><circle cx="55" cy="54" r="5" fill="#8fa2ff"></circle><rect width="10" height="4" x="61" y="75" fill="#fff" rx="1"></rect><circle cx="21" cy="80" r="10" fill="#323fd4"></circle><circle cx="21" cy="80" r="4" fill="#fff"></circle></svg>